<svg width="184" height="51" viewBox="0 0 184 51" fill="none" xmlns="http://www.w3.org/2000/svg">
<path d="M181.628 0.408054C181.532 0.149213 181.244 0.0173607 180.985 0.113564L176.767 1.68123C176.508 1.77743 176.376 2.06525 176.473 2.32409C176.569 2.58294 176.857 2.71479 177.115 2.61859L180.865 1.2251L182.258 4.97453C182.355 5.23338 182.642 5.36523 182.901 5.26903C183.16 5.17282 183.292 4.885 183.196 4.62616L181.628 0.408054ZM1.39016 50.302C12.2631 45.2463 26.5391 44.7473 42.5241 45.6044C58.4501 46.4584 76.1161 48.6647 93.5066 48.9323C110.926 49.2004 128.208 47.5329 143.511 40.6067C158.832 33.6728 172.134 21.4857 181.614 0.790479L180.705 0.374001C171.32 20.8604 158.189 32.866 143.099 39.6956C127.992 46.5329 110.883 48.1996 93.522 47.9324C76.1317 47.6648 58.626 45.4664 42.5777 44.6059C26.5884 43.7485 12.0873 44.2252 0.968529 49.3953L1.39016 50.302Z" fill="white"/>
</svg>
