<svg width="202" height="36" viewBox="0 0 202 36" fill="none" xmlns="http://www.w3.org/2000/svg">
<path d="M200.497 1.62348C200.464 1.34922 200.216 1.153 199.942 1.18521L195.472 1.71006C195.198 1.74227 195.002 1.99071 195.034 2.26497C195.066 2.53923 195.315 2.73545 195.589 2.70324L199.562 2.2367L200.028 6.2094C200.06 6.48366 200.309 6.67988 200.583 6.64767C200.857 6.61546 201.054 6.36702 201.021 6.09276L200.497 1.62348ZM1.08845 2.17392C13.697 -0.0923153 28.5228 3.62264 44.7246 9.32529C60.8673 15.0071 78.4154 22.6804 96.228 28.1596C114.07 33.6478 132.314 36.9854 150.005 34.0029C167.715 31.017 184.822 21.7055 200.392 1.9917L199.608 1.37189C184.178 20.908 167.285 30.0756 149.839 33.0168C132.373 35.9613 114.305 32.674 96.522 27.2038C78.7096 21.7247 61.3202 14.1064 45.0566 8.38202C28.8522 2.67845 13.803 -1.12741 0.911548 1.18969L1.08845 2.17392Z" fill="white"/>
</svg>
