<svg width="8" height="6" viewBox="0 0 8 6" fill="none" xmlns="http://www.w3.org/2000/svg">
<path d="M7.51453 1.26716C7.51681 1.16326 7.48669 1.06122 7.42831 0.975246C7.36993 0.889268 7.28616 0.823617 7.18874 0.787421C7.09132 0.751224 6.98506 0.746281 6.8847 0.773277C6.78434 0.800274 6.69493 0.857869 6.62882 0.938056L4.00773 3.99763L1.38756 0.938055C1.34679 0.882586 1.29503 0.836132 1.23548 0.801603C1.17593 0.767073 1.10987 0.745211 1.04148 0.737387C0.973083 0.729562 0.903825 0.735943 0.838012 0.75613C0.7722 0.776317 0.711244 0.809875 0.659001 0.854703C0.606759 0.899531 0.564381 0.954663 0.534432 1.01665C0.504483 1.07863 0.487662 1.14613 0.485008 1.21492C0.482354 1.2837 0.493892 1.3523 0.518976 1.41641C0.54406 1.48051 0.582109 1.53875 0.630743 1.58747L3.62785 5.0904C3.67479 5.14541 3.73306 5.18958 3.79873 5.21987C3.86439 5.25016 3.93587 5.26585 4.00819 5.26585C4.0805 5.26585 4.15198 5.25016 4.21765 5.21987C4.28332 5.18958 4.34164 5.14541 4.38859 5.0904L7.38857 1.58747C7.46717 1.49898 7.51186 1.38548 7.51464 1.26716L7.51453 1.26716Z" fill="#151515"/>
</svg>
