<svg width="24" height="24" viewBox="0 0 24 24" fill="none" xmlns="http://www.w3.org/2000/svg">
<path d="M0 12.0001C0 18.6275 5.37266 23.9999 12.0001 23.9999C18.6275 23.9999 23.9999 18.6275 23.9999 12.0001C23.9999 5.37266 18.6275 0 12.0001 0C5.37266 0 0 5.37266 0 12.0001H0ZM10.6042 7.01043L15.6568 11.4316C15.8212 11.5747 15.9158 11.782 15.9158 12.0001C15.9158 12.218 15.8212 12.4254 15.6568 12.5684L10.6042 16.9895C10.2904 17.265 9.81229 17.234 9.53683 16.9201C9.26136 16.606 9.29235 16.1282 9.60621 15.8527L14.0084 12.0001L9.60621 8.14746C9.29235 7.87176 9.26136 7.39391 9.53683 7.08005C9.81229 6.76596 10.2904 6.73497 10.6042 7.01043Z" fill="#F6D384"/>
</svg>
