<svg width="24" height="24" viewBox="0 0 24 24" fill="none" xmlns="http://www.w3.org/2000/svg">
<path d="M24 11.9999C24 5.37251 18.6273 7.58243e-05 11.9999 7.52449e-05C5.37251 7.46655e-05 7.79224e-05 5.3725 7.7343e-05 11.9999C7.67636e-05 18.6273 5.37251 24 11.9999 24C18.6273 24 24 18.6273 24 11.9999H24ZM13.3958 16.9896L8.34321 12.5684C8.17876 12.4253 8.08416 12.218 8.08416 11.9999C8.08416 11.782 8.17876 11.5746 8.34321 11.4316L13.3958 7.01051C13.7096 6.73504 14.1877 6.76603 14.4632 7.0799C14.7386 7.39399 14.7076 7.87184 14.3938 8.14731L9.99162 11.9999L14.3938 15.8525C14.7076 16.1282 14.7386 16.6061 14.4632 16.9199C14.1877 17.234 13.7096 17.265 13.3958 16.9896Z" fill="#F6D384"/>
</svg>
