<svg width="18" height="18" viewBox="0 0 18 18" fill="none" xmlns="http://www.w3.org/2000/svg">
<path d="M9.61184 10.1696C9.40599 10.3756 9.07214 10.3756 8.86614 10.1696L6.46975 7.77324C6.37087 7.67436 6.31526 7.54019 6.31526 7.40039C6.31526 7.26045 6.37087 7.12642 6.46975 7.0274L6.89575 6.60155L5.64454 5.35034L4.61952 6.37537C4.27455 6.72034 4.27468 7.2816 4.61952 7.62657L9.01281 12.0201C9.17884 12.1862 9.40104 12.2775 9.63848 12.2775C9.87593 12.2775 10.0981 12.186 10.2642 12.02L11.2892 10.9951L10.038 9.74377L9.61184 10.1696Z" fill="#BB6FDE"/>
<path d="M17.2436 6.35312C17.2436 4.66246 16.5811 3.06889 15.3778 1.86575C14.1747 0.662613 12.5811 0 10.8906 0H7.12628C7.12628 0 7.12628 0 7.12614 0C5.43576 0 3.84219 0.662613 2.63919 1.86562C1.43605 3.06876 0.773438 4.66246 0.773438 6.35298V9.31187C0.773438 10.621 1.17279 11.8805 1.92838 12.954C2.59497 13.901 3.49146 14.6407 4.53667 15.1098V16.8094C4.53667 17.6881 5.02872 17.9999 5.45004 18C5.75107 18 6.05223 17.8514 6.34529 17.5585L8.23865 15.6649H10.8907C12.5813 15.6649 14.1748 15.0022 15.378 13.7991C16.5811 12.596 17.2437 11.0024 17.2437 9.31187L17.2436 6.35312ZM12.408 11.368L11.0099 12.7658C10.6447 13.1311 10.1577 13.332 9.63858 13.332C9.11948 13.332 8.63251 13.131 8.26721 12.7658L3.87378 8.37227C3.11778 7.616 3.11778 6.38567 3.87378 5.62953L5.27179 4.23166C5.37067 4.13264 5.5047 4.07716 5.64464 4.07716C5.78444 4.07716 5.91861 4.13264 6.01749 4.23166L8.01453 6.2287C8.1134 6.32758 8.16888 6.46175 8.16888 6.60155C8.16888 6.74135 8.1134 6.87552 8.01439 6.9744L7.58853 7.40025L9.23923 9.05095L9.66522 8.62495C9.87122 8.4191 10.2051 8.4191 10.4109 8.62509L12.408 10.6221C12.507 10.721 12.5625 10.8552 12.5625 10.995C12.5625 11.1349 12.507 11.2691 12.408 11.368ZM8.60916 5.11949C8.60916 4.82835 8.84523 4.59215 9.13651 4.59215C10.9637 4.59215 12.4503 6.0786 12.4503 7.90562C12.4503 8.1969 12.2142 8.43297 11.9229 8.43297C11.6318 8.43297 11.3956 8.1969 11.3956 7.90562C11.3956 6.66019 10.3822 5.64684 9.13651 5.64684C8.84523 5.64684 8.60916 5.41077 8.60916 5.11949ZM14.1821 8.43324C13.8908 8.43324 13.6548 8.19704 13.6548 7.9059C13.6549 6.69891 13.1848 5.5643 12.3315 4.7108C11.478 3.85744 10.3434 3.38736 9.13637 3.38736C8.84523 3.38736 8.60902 3.15129 8.60902 2.86002C8.60902 2.56888 8.84523 2.33267 9.13637 2.33267C10.625 2.33267 12.0245 2.91248 13.0772 3.9651C14.1299 5.01773 14.7096 6.41725 14.7095 7.9059C14.7095 8.19704 14.4734 8.43324 14.1821 8.43324Z" fill="#BB6FDE"/>
</svg>
