<svg width="739" height="716" viewBox="0 0 739 716" fill="none" xmlns="http://www.w3.org/2000/svg">
<path d="M5.5 11.5H726C732.627 11.5 738 16.8726 738 23.5V180.5C738 187.127 732.627 192.5 726 192.5H17.5C10.8726 192.5 5.5 197.873 5.5 204.5V347C5.5 353.627 10.8726 359 17.5 359H726C732.627 359 738 364.373 738 371V526C738 532.627 732.627 538 726 538H17.5C10.8726 538 5.5 543.373 5.5 550V703C5.5 709.627 10.8726 715 17.5 715H657" stroke="#F6D384" stroke-dasharray="6 6"/>
<circle cx="12" cy="12" r="12" fill="#F6D384"/>
</svg>
