<svg width="221" height="26" viewBox="0 0 221 26" fill="none" xmlns="http://www.w3.org/2000/svg">
<path d="M9.44474 25.8949C16.7935 25.8949 23.1027 20.1833 23.1027 13C23.1027 5.85175 16.7935 0.140162 9.44474 0.140162H0.160156V25.8949H9.44474ZM3.74494 22.8464V3.18868H9.44474C14.2842 3.18868 19.518 7.25337 19.518 13C19.518 17.8005 15.2521 22.8464 9.44474 22.8464H3.74494Z" fill="black"/>
<path d="M32.5198 22.9164V14.0512H45.0665V11.248H32.5198V2.9434H47.9343V0.140162H28.935V25.8949H49.0098V22.9164H32.5198Z" fill="black"/>
<path d="M66.1957 3.2938H75.5161V0.140162H53.2905V3.2938H62.6109V25.8949H66.1957V3.2938Z" fill="black"/>
<path d="M80.8779 18.8517H93.7831L95.934 25.8949H99.5188L91.6323 0.140162H83.0288L75.1423 25.8949H78.727L80.8779 18.8517ZM85.6457 3.2938H89.0154L92.8152 15.6981H81.8458L85.6457 3.2938Z" fill="black"/>
<path d="M109.191 0.140162H105.606V25.8949H109.191V0.140162Z" fill="black"/>
<path d="M118.528 22.7412V0.140162H114.943V25.8949H134.301V22.7412H118.528Z" fill="black"/>
<path d="M143.985 0.140162H140.401V25.8949H143.985V0.140162Z" fill="black"/>
<path d="M168.235 22.9164H167.411L156.477 0.140162H149.738V25.8949H153.323V3.1186H154.147L165.081 25.8949H171.82V0.140162H168.235V22.9164Z" fill="black"/>
<path d="M180.543 13C180.543 7.35849 185.633 3.50404 190.58 3.50404C192.588 3.50404 194.416 3.78437 195.957 4.52022L196.388 6.7628H199.542V2.52291C196.674 0.77089 193.735 0 190.58 0C183.267 0 176.958 5.81671 176.958 13C176.958 20.1833 183.267 26 190.58 26C194.631 26 198.359 24.2129 200.904 21.4447V11.0728H188.716V14.2264H197.32V20.0081C195.563 21.5148 193.233 22.496 190.58 22.496C185.633 22.496 180.543 18.6415 180.543 13Z" fill="black"/>
<path d="M215.102 14.2147H220.16V11.1H215.102V6.19437H211.915V11.1H206.896V14.2147H211.915V19.1593H215.102V14.2147Z" fill="#F6D384"/>
</svg>
